<?xml version="1.0" encoding="utf-8"?>
<!-- Generator: Adobe Illustrator 16.0.3, SVG Export Plug-In . SVG Version: 6.00 Build 0)  -->
<!DOCTYPE svg PUBLIC "-//W3C//DTD SVG 1.1//EN" "http://www.w3.org/Graphics/SVG/1.1/DTD/svg11.dtd">
<svg version="1.1" xmlns="http://www.w3.org/2000/svg" xmlns:xlink="http://www.w3.org/1999/xlink" x="0px" y="0px"
	 width="20.096px" height="23.5px" viewBox="0 0 20.096 23.5" enable-background="new 0 0 20.096 23.5" xml:space="preserve">
<g id="Layer_1">
</g>
<g id="Layer_3">
	<g opacity="0.3">
		<g>
			<path d="M17.178,0H2.916C1.313,0,0,1.313,0,2.918v17.666C0,22.188,1.313,23.5,2.916,23.5h14.262c1.605,0,2.918-1.313,2.918-2.916
				V2.918C20.096,1.313,18.783,0,17.178,0z M17.664,18.981c0,1.069-0.873,1.944-1.943,1.944H4.375c-1.07,0-1.945-0.875-1.945-1.944
				V4.52c0-1.069,0.875-1.945,1.945-1.945h11.346c1.07,0,1.943,0.876,1.943,1.945V18.981z"/>
			<path d="M14.869,10.453H5.227c-0.535,0-0.973,0.438-0.973,0.973v0.893c0,0.534,0.438,0.972,0.973,0.972h9.643
				c0.535,0,0.973-0.438,0.973-0.972v-0.893C15.842,10.892,15.404,10.453,14.869,10.453z"/>
			<path d="M14.869,6.078H5.227c-0.535,0-0.973,0.438-0.973,0.973v0.891c0,0.535,0.438,0.973,0.973,0.973h9.643
				c0.535,0,0.973-0.438,0.973-0.973V7.051C15.842,6.516,15.404,6.078,14.869,6.078z"/>
			<path d="M14.869,14.83H5.227c-0.535,0-0.973,0.438-0.973,0.972v0.892c0,0.535,0.438,0.973,0.973,0.973h9.643
				c0.535,0,0.973-0.438,0.973-0.973v-0.892C15.842,15.268,15.404,14.83,14.869,14.83z"/>
		</g>
	</g>
</g>
<g id="Layer_2" display="none">
</g>
</svg>
